<svg xmlns="http://www.w3.org/2000/svg" width="232" height="232" viewBox="0 0 174 174" preserveAspectRatio="xMidYMid meet" xmlns:v="https://vecta.io/nano"><path d="M60 2.4c-1.9.7-7.7 4-12.7 7.4-5.1 3.4-9.5 6.2-9.8 6.2s-1.1.5-1.8 1c-.7.6-3.7 2.7-6.7 4.8-9.2 6.3-9 5.2-9 47 0 38.1.2 40.5 4.6 44.4 1.9 1.6 5 3.4 18.9 10.8 4.4 2.3 8.5 4.6 9 5 3.6 2.7 5.6 2.1 19-6.1 7.5-4.5 13.7-8.5 14-8.9.2-.4-2.6-2.2-6.3-4.1s-6.8-3.7-7-4.2c-.2-.4-1.2-.7-2.2-.7s-2.1-.4-2.5-1c-.3-.5-3.4-2.3-6.8-4.1-3.4-1.7-6.7-3.5-7.2-3.9-.8-.7-1.3-43.7-.6-51.7.1-.6 10-7.1 22.1-14.3 12.1-7.3 22-13.6 22-13.9C97 14.8 68.8 1 66.2 1c-1.5.1-4.3.7-6.2 1.4zm28.2 26.4L74 37.5l3.9 1.9 3.9 1.9 5.4-3.5c2.9-1.9 9.3-5.8 14.1-8.7 4.9-2.9 8.7-5.5 8.5-5.7s-2-1-3.9-1.8l-3.6-1.5-14.1 8.7zm11.3 8.7c-3.8 2.5-7.7 4.8-8.6 5.3C88 44.2 80 49.5 80 50.1c0 .3 1.5 1.2 3.3 2.1 3.5 1.7 3.6 1.6 22.7-10.3 1.4-.9 4-2.5 5.9-3.6l3.4-2.1-3.1-1.6c-4.3-2.2-4.8-2.1-12.7 2.9zm10 9.2c-3.3 2.1-6.1 4.1-6.3 4.5s-1 .8-1.7.8c-.8 0-2 .6-2.7 1.2-.7.7-2.4 1.9-3.8 2.6s-3.5 2.1-4.7 3c-2.5 1.9-4.9.4 21.7 14.4l9.5 5-.1 25.6-.3 26.4c0 .4-2.6 2.2-5.6 4-28.8 17.2-38.4 23.2-38 23.9.3.4 6.5 3.9 13.9 7.8 12.3 6.5 16.4 7.9 20.7 6.9 2-.5 25.9-15.4 29.7-18.5 1.5-1.3 3.2-2.3 3.7-2.3 1.4-.1 4.7-3 6.8-6 1.5-2.2 1.7-6.2 1.7-41 0-35.9-.1-38.7-1.9-41.3-2.3-3.6-3.6-4.3-32.1-19.4-3.4-1.8-3.7-1.7-10.5 2.4zm-24 74.6l-13.9 8.5-8.9 5.5 3.6 1.9c3.6 1.8 3.7 1.8 7.5-.4 9.1-5.4 18.7-11.3 19.2-11.8.3-.3 1.8-1.2 3.3-1.9l2.8-1.5-3.3-1.8c-4.3-2.2-4.4-2.2-10.3 1.5zm1.4 14.8L75 143.2c-1.4.7-2.7 1.5-3 1.9-.3.3-1.4 1-2.4 1.6-1.8 1-1.7 1.2 1.2 2.7 1.7.9 3.7 1.6 4.3 1.6 1.5 0 27.9-16.2 27.9-17 0-.4-1.5-1.3-3.3-2.2l-3.4-1.6-9.4 5.9z"/></svg>